<svg width="100" height="100" viewBox="0 0 100 100" fill="none" xmlns="http://www.w3.org/2000/svg">
<g clip-path="url(#clip0_123_181)">
<mask id="mask0_123_181" style="mask-type:luminance" maskUnits="userSpaceOnUse" x="0" y="0" width="100" height="100">
<path d="M100 0H0V100H100V0Z" fill="white"/>
</mask>
<g mask="url(#mask0_123_181)">
<mask id="mask1_123_181" style="mask-type:luminance" maskUnits="userSpaceOnUse" x="0" y="0" width="100" height="100">
<path d="M100 0H0V100H100V0Z" fill="white"/>
</mask>
<g mask="url(#mask1_123_181)">
<mask id="mask2_123_181" style="mask-type:luminance" maskUnits="userSpaceOnUse" x="0" y="0" width="100" height="100">
<path d="M100 0H0V100H100V0Z" fill="white"/>
</mask>
<g mask="url(#mask2_123_181)">
<path d="M50 100C77.6142 100 100 77.6142 100 50C100 22.3858 77.6142 0 50 0C22.3858 0 0 22.3858 0 50C0 77.6142 22.3858 100 50 100Z" fill="url(#paint0_linear_123_181)"/>
<path d="M24.1894 74.936C22.7387 74.936 21.2881 74.7653 19.8374 74.424C18.4294 74.0827 17.1067 73.528 15.8694 72.76C14.3334 71.8213 13.1174 70.5413 12.2214 68.92C11.3254 67.3413 10.8774 65.6773 10.8774 63.928C10.8774 63.6293 10.9414 63.4587 11.0694 63.416C11.1974 63.5013 11.3041 63.6933 11.3894 63.992C11.4747 64.248 11.6027 64.376 11.7734 64.376C11.9867 64.376 12.1574 64.2267 12.2854 63.928C12.4134 63.5867 12.4987 63.3733 12.5414 63.288C12.7547 62.8187 12.9254 62.456 13.0534 62.2C13.1814 61.944 13.4801 61.6667 13.9494 61.368C14.1201 61.2827 14.3974 61.1547 14.7814 60.984C15.2081 60.8133 15.6134 60.664 15.9974 60.536C16.4241 60.3653 16.7014 60.28 16.8294 60.28C16.8721 60.28 16.8934 60.3013 16.8934 60.344C16.8934 60.4293 16.6374 60.5787 16.1254 60.792C15.6561 61.0053 15.1654 61.3467 14.6534 61.816C14.1841 62.2427 13.9494 62.8613 13.9494 63.672C13.9494 63.8 13.9921 64.0347 14.0774 64.376C14.8454 67.3627 16.3387 69.5173 18.5574 70.84C20.7761 72.2053 23.3361 72.888 26.2374 72.888C28.8827 72.888 31.5067 72.44 34.1094 71.544C36.7121 70.648 39.1867 69.4533 41.5334 67.96C43.8801 66.5093 45.9707 64.888 47.8054 63.096C49.5547 61.432 51.2614 59.7467 52.9254 58.04C54.6321 56.2907 56.2747 54.52 57.8534 52.728L46.3974 52.152C46.1414 52.152 45.8854 52.152 45.6294 52.152C45.3734 52.1093 45.1174 52.088 44.8614 52.088C43.8801 52.088 42.7281 52.216 41.4054 52.472C40.0827 52.6853 39.1014 53.2187 38.4614 54.072C38.1627 54.4987 37.9281 54.9893 37.7574 55.544C37.5867 56.0987 37.4161 56.632 37.2454 57.144C36.9894 57.0587 36.7547 56.9093 36.5414 56.696C36.3281 56.44 36.2214 56.1627 36.2214 55.864C36.2214 55.3947 36.4561 54.9253 36.9254 54.456C37.4374 53.9867 37.9921 53.5813 38.5894 53.24C39.1867 52.856 39.6774 52.5573 40.0614 52.344C41.4267 51.6187 42.8347 51.0213 44.2854 50.552C45.7361 50.0827 47.2507 49.848 48.8294 49.848C50.7067 49.848 52.5627 49.912 54.3974 50.04C56.2747 50.1253 58.1307 50.2107 59.9654 50.296C62.8667 46.8827 65.6401 43.4053 68.2854 39.864C70.9734 36.3227 73.8747 32.952 76.9894 29.752C74.6427 28.7707 72.0614 27.8747 69.2454 27.064C66.4721 26.2107 63.6347 25.5493 60.7334 25.08C57.8747 24.568 55.1654 24.312 52.6054 24.312C51.0694 24.312 49.4054 24.4613 47.6134 24.76C45.8641 25.016 44.2214 25.528 42.6854 26.296C41.1494 27.0213 39.9121 28.088 38.9734 29.496C38.2054 30.5627 37.8214 31.8 37.8214 33.208C37.8214 35 38.3547 36.5147 39.4214 37.752C40.4881 38.9467 41.8107 39.8427 43.3894 40.44C44.9681 41.0373 46.5467 41.336 48.1254 41.336C48.7654 41.336 49.3627 41.208 49.9174 40.952C50.4721 40.6533 50.9627 40.2907 51.3894 39.864C51.5174 39.9067 51.5814 39.992 51.5814 40.12C51.5814 40.1627 51.5601 40.2267 51.5174 40.312C51.5174 40.3547 51.5174 40.4187 51.5174 40.504C50.9627 41.3147 50.2161 41.8693 49.2774 42.168C48.3387 42.424 47.4001 42.552 46.4614 42.552C44.6694 42.552 42.9201 42.2107 41.2134 41.528C39.5494 40.8453 38.1627 39.8213 37.0534 38.456C35.9867 37.0907 35.4534 35.4053 35.4534 33.4C35.4534 32.5467 35.5601 31.736 35.7734 30.968C36.0294 30.1573 36.3707 29.3893 36.7974 28.664C37.8214 26.9573 39.1867 25.6347 40.8934 24.696C42.6001 23.7573 44.4347 23.096 46.3974 22.712C48.3601 22.2853 50.2587 22.072 52.0934 22.072C54.9521 22.072 57.8961 22.392 60.9254 23.032C63.9547 23.672 66.9414 24.504 69.8854 25.528C72.8721 26.5093 75.6667 27.5333 78.2694 28.6C78.6961 28.2587 79.2294 27.896 79.8694 27.512C80.5094 27.0853 81.1067 26.872 81.6614 26.872C82.2587 26.872 82.7281 27.064 83.0694 27.448C83.4107 27.7893 83.5814 28.2587 83.5814 28.856C83.5814 29.0267 83.5601 29.2187 83.5174 29.432C83.4747 29.6027 83.4321 29.7947 83.3894 30.008C83.2614 30.7333 83.0907 31.2027 82.8774 31.416C82.6641 31.6293 82.4294 31.8 82.1734 31.928C81.9601 32.0133 81.6827 32.3333 81.3414 32.888C80.7014 33.9547 79.9547 35.5333 79.1014 37.624C78.2907 39.672 77.4587 41.976 76.6054 44.536C75.7521 47.0533 74.9627 49.6133 74.2374 52.216C73.5121 54.776 72.9147 57.144 72.4454 59.32C72.0187 61.496 71.8054 63.2453 71.8054 64.568C71.8054 65.1227 71.8481 65.72 71.9334 66.36C72.0614 67 72.2961 67.5333 72.6374 67.96C73.0214 68.4293 73.5761 68.664 74.3014 68.664C74.8987 68.664 75.4107 68.4933 75.8374 68.152C76.2641 67.8533 76.6694 67.4907 77.0534 67.064C77.1814 66.9787 77.2454 67.0427 77.2454 67.256V67.384C77.2454 68.024 76.8614 68.5787 76.0934 69.048C75.3681 69.56 74.5361 69.944 73.5974 70.2C72.7014 70.456 71.9761 70.584 71.4214 70.584C69.9707 70.584 69.0747 70.1147 68.7334 69.176C68.3921 68.28 68.2214 67.2133 68.2214 65.976C68.2214 64.3973 68.3921 62.6693 68.7334 60.792C69.0747 58.9147 69.5014 57.0587 70.0134 55.224C70.5681 53.3467 71.1014 51.64 71.6134 50.104L68.9254 52.664C68.0721 52.7493 67.2187 52.8133 66.3654 52.856C65.5121 52.856 64.6587 52.856 63.8054 52.856C63.1227 52.856 62.4401 52.856 61.7574 52.856C61.1174 52.856 60.4561 52.8347 59.7734 52.792C57.6401 55.1813 55.4641 57.5707 53.2454 59.96C51.0267 62.3493 48.5947 64.4613 45.9494 66.296C43.9441 67.704 41.7254 69.0693 39.2934 70.392C36.9041 71.7147 34.4294 72.8027 31.8694 73.656C29.3094 74.5093 26.7494 74.936 24.1894 74.936ZM66.9414 50.616C67.7521 50.616 68.5414 50.5947 69.3094 50.552C70.0774 50.4667 70.8454 50.3173 71.6134 50.104C72.8081 46.6053 74.1307 43.1707 75.5814 39.8C77.0747 36.4293 78.3761 32.9947 79.4854 29.496L61.8214 50.424C62.6747 50.4667 63.5281 50.5093 64.3814 50.552C65.2347 50.5947 66.0881 50.616 66.9414 50.616Z" fill="white"/>
</g>
</g>
</g>
</g>
<defs>
<linearGradient id="paint0_linear_123_181" x1="16" y1="17.5" x2="84" y2="82.5" gradientUnits="userSpaceOnUse">
<stop offset="0.125" stop-color="#6699CC"/>
<stop offset="0.25" stop-color="#5FB3B3"/>
<stop offset="0.375" stop-color="#99C794"/>
<stop offset="0.5" stop-color="#FAC863"/>
<stop offset="0.625" stop-color="#E5B77B"/>
<stop offset="0.75" stop-color="#FF7F00"/>
<stop offset="0.875" stop-color="#EB606B"/>
<stop offset="1" stop-color="#BB80B3"/>
</linearGradient>
<clipPath id="clip0_123_181">
<rect width="100" height="100" fill="white"/>
</clipPath>
</defs>
</svg>
