<svg width="292" height="73" viewBox="0 0 292 73" fill="none" xmlns="http://www.w3.org/2000/svg">
<g clip-path="url(#clip0_131_4)">
<path d="M277 0H15C6.71573 0 0 6.71573 0 15V58C0 66.2843 6.71572 73 15 73H277C285.284 73 292 66.2843 292 58V15C292 6.71573 285.284 0 277 0Z" fill="#F96854"/>
<path d="M28.3152 24.3337H23.8564V48.6676H28.3152V24.3337Z" fill="black"/>
<path d="M40.0259 42.5867C45.0655 42.5867 49.1509 38.5013 49.1509 33.4617C49.1509 28.4221 45.0655 24.3367 40.0259 24.3367C34.9863 24.3367 30.9009 28.4221 30.9009 33.4617C30.9009 38.5013 34.9863 42.5867 40.0259 42.5867Z" fill="white"/>
<path d="M77.7786 36.1788C78.7612 36.3365 79.5277 36.7321 80.0752 37.3658C80.6242 37.9994 80.8986 38.8141 80.8986 39.8113C80.8986 41.0654 80.4563 42.0903 79.573 42.889C78.6911 43.6861 77.4151 44.0847 75.7492 44.0847H68.6346V28.9153H75.4718C77.1377 28.9153 78.3947 29.2745 79.243 29.9942C80.0898 30.714 80.5132 31.6572 80.5132 32.8252C80.5132 33.6369 80.2752 34.3421 79.7978 34.9407C79.3204 35.5379 78.6473 35.951 77.7786 36.1788ZM74.5097 31.4572H72.2452V35.1539H74.5097C75.2791 35.1539 75.8456 34.9831 76.2091 34.6414C76.5712 34.2998 76.7537 33.8501 76.7537 33.2953C76.7537 32.739 76.5683 32.2952 76.1974 31.9594C75.8281 31.6251 75.2645 31.4572 74.5097 31.4572ZM74.7447 41.5428C75.5288 41.5428 76.123 41.3574 76.5289 40.9866C76.9347 40.6172 77.1377 40.1252 77.1377 39.512C77.1377 38.9148 76.9391 38.4374 76.5391 38.0812C76.1405 37.7249 75.5711 37.5468 74.8309 37.5468H72.2452V41.5428H74.7447ZM86.7956 41.4144H93.7174V44.0847H83.185V28.9153H93.5685V31.5856H86.7956V35.005H93.205V37.6534H86.7956V41.4144ZM102.564 44.4482C100.198 44.4482 98.3748 43.7358 97.093 42.3108C95.8111 40.8873 95.1701 38.9572 95.1701 36.5219C95.1701 34.1144 95.8359 32.1842 97.1689 30.7315C98.5004 29.2788 100.312 28.5518 102.606 28.5518C104.514 28.5518 106.06 29.0394 107.243 30.0161C108.424 30.9914 109.116 32.32 109.315 34.0005L105.662 34.6414C105.548 33.6296 105.219 32.8471 104.679 32.2908C104.137 31.736 103.418 31.4572 102.521 31.4572C101.381 31.4572 100.487 31.9098 99.8392 32.815C99.191 33.7187 98.8669 34.948 98.8669 36.5C98.8669 38.0242 99.1983 39.2419 99.8611 40.1529C100.523 41.0654 101.445 41.5209 102.628 41.5209C103.467 41.5209 104.158 41.2465 104.7 40.699C105.241 40.15 105.59 39.385 105.746 38.4009L109.401 39.1922C109.03 40.8304 108.258 42.1152 107.082 43.0481C105.907 43.981 104.4 44.4482 102.564 44.4482ZM123.501 42.3108C122.148 43.7358 120.333 44.4482 118.054 44.4482C115.775 44.4482 113.959 43.7328 112.605 42.3006C111.252 40.8698 110.576 38.9353 110.576 36.5C110.576 34.0647 111.252 32.1302 112.605 30.6994C113.959 29.2672 115.775 28.5518 118.054 28.5518C120.333 28.5518 122.148 29.2672 123.501 30.6994C124.855 32.1302 125.531 34.0647 125.531 36.5C125.531 38.9353 124.855 40.8727 123.501 42.3108ZM115.276 40.261C115.946 41.172 116.872 41.6275 118.054 41.6275C119.235 41.6275 120.158 41.1749 120.821 40.2712C121.482 39.366 121.814 38.1089 121.814 36.5C121.814 34.8911 121.482 33.634 120.821 32.7288C120.158 31.8251 119.235 31.3725 118.054 31.3725C116.872 31.3725 115.946 31.8251 115.276 32.7288C114.607 33.634 114.271 34.8911 114.271 36.5C114.271 38.0958 114.607 39.3485 115.276 40.261ZM127.733 44.0847V28.9153H132.689L135.488 38.2097C135.644 38.7499 135.765 39.3631 135.852 40.0463H135.894C135.965 39.4346 136.094 38.8068 136.278 38.1659L138.95 28.9153H143.971V44.0847H140.68V33.7435C140.68 33.1172 140.709 32.5478 140.766 32.0339H140.702C140.658 32.4762 140.551 32.9668 140.381 33.5085L137.326 44.0847H134.291L131.108 33.5085C130.952 33.0821 130.845 32.5974 130.787 32.0558H130.724C130.781 32.739 130.809 33.3026 130.809 33.7435V44.0847H127.733ZM150.744 41.4144H157.665V44.0847H147.133V28.9153H157.517V31.5856H150.744V35.005H157.153V37.6534H150.744V41.4144ZM174.886 44.0847L173.733 40.5384H168.135L166.982 44.0847H163.371L168.883 28.9153H173.007L178.519 44.0847H174.886ZM168.969 37.995H172.899L171.511 33.7654C171.241 32.9099 171.055 32.1988 170.956 31.628H170.912C170.813 32.1988 170.627 32.9099 170.357 33.7654L168.969 37.995ZM191.403 28.9153C193.054 28.9153 194.376 29.3489 195.366 30.2191C196.355 31.0878 196.85 32.2412 196.85 33.6793C196.85 35.1889 196.355 36.3832 195.366 37.2592C194.376 38.1352 193.027 38.5732 191.317 38.5732H188.283V44.0847H184.673V28.9153H191.403ZM190.527 36.0518C191.324 36.0518 191.948 35.8518 192.396 35.4532C192.844 35.0546 193.069 34.4983 193.069 33.7859C193.069 33.0748 192.849 32.5186 192.406 32.12C191.965 31.7214 191.339 31.5214 190.527 31.5214H188.283V36.0518H190.527ZM207.171 44.0847L206.016 40.5384H200.419L199.265 44.0847H195.655L201.166 28.9153H205.291L210.802 44.0847H207.171ZM201.252 37.995H205.184L203.794 33.7654C203.524 32.9099 203.339 32.1988 203.239 31.628H203.197C203.096 32.1988 202.911 32.9099 202.641 33.7654L201.252 37.995ZM221.7 28.9153V31.7784H217.277V44.0847H213.687V31.7784H209.285V28.9153H221.7ZM232.105 44.0847L229.198 38.2739H227.02V44.0847H223.409V28.9153H230.074C231.94 28.9153 233.333 29.3285 234.251 30.1548C235.171 30.9812 235.629 32.12 235.629 33.5727C235.629 34.5421 235.374 35.3962 234.86 36.1365C234.348 36.8781 233.615 37.411 232.66 37.7395L236.015 44.0847H232.105ZM227.02 31.4572V35.7948H229.349C231.029 35.7948 231.87 35.0546 231.87 33.5727C231.87 32.1623 231.029 31.4572 229.349 31.4572H227.02ZM249.816 42.3108C248.463 43.7358 246.648 44.4482 244.369 44.4482C242.09 44.4482 240.274 43.7328 238.92 42.3006C237.567 40.8698 236.891 38.9353 236.891 36.5C236.891 34.0647 237.567 32.1302 238.92 30.6994C240.274 29.2672 242.09 28.5518 244.369 28.5518C246.648 28.5518 248.463 29.2672 249.816 30.6994C251.17 32.1302 251.847 34.0647 251.847 36.5C251.847 38.9353 251.17 40.8727 249.816 42.3108ZM241.591 40.261C242.261 41.172 243.186 41.6275 244.369 41.6275C245.55 41.6275 246.473 41.1749 247.136 40.2712C247.797 39.366 248.129 38.1089 248.129 36.5C248.129 34.8911 247.797 33.634 247.136 32.7288C246.473 31.8251 245.55 31.3725 244.369 31.3725C243.186 31.3725 242.261 31.8251 241.591 32.7288C240.922 33.634 240.586 34.8911 240.586 36.5C240.586 38.0958 240.922 39.3485 241.591 40.261ZM254.047 44.0847V28.9153H258.042L262.914 37.5687C263.369 38.4228 263.676 39.0784 263.832 39.5339H263.876C263.876 39.3485 263.872 39.0419 263.864 38.6155C263.857 38.1878 263.854 37.8461 263.854 37.5892V28.9153H267.165V44.0847H263.32L258.277 35.3466C257.794 34.4341 257.494 33.8151 257.381 33.488H257.338C257.338 33.6866 257.341 34.0078 257.348 34.4487C257.356 34.8911 257.359 35.24 257.359 35.4955V44.0847H254.047Z" fill="white"/>
</g>
<defs>
<clipPath id="clip0_131_4">
<rect width="292" height="73" fill="white"/>
</clipPath>
</defs>
</svg>
